<?xml version="1.0" encoding="UTF-8"?>
<svg xmlns="http://www.w3.org/2000/svg" xmlns:xlink="http://www.w3.org/1999/xlink" viewBox="0 0 60 60" width="50px" height="50px">
<g id="surface10992070">
<path style=" stroke:none;fill-rule:nonzero;fill:rgb(80.000001%,80.000001%,80.000001%);fill-opacity:1;" d="M 30 48.601562 C 19.726562 48.601562 11.398438 40.273438 11.398438 30 C 11.398438 19.726562 19.726562 11.398438 30 11.398438 C 40.273438 11.398438 48.601562 19.726562 48.601562 30 C 48.601562 40.273438 40.273438 48.601562 30 48.601562 Z M 30 48.601562 "/>
<path style=" stroke:none;fill-rule:nonzero;fill:rgb(29.803923%,53.725493%,18.82353%);fill-opacity:1;" d="M 30 10.800781 C 19.398438 10.800781 10.800781 19.398438 10.800781 30 C 10.800781 40.601562 19.398438 49.199219 30 49.199219 C 40.601562 49.199219 49.199219 40.601562 49.199219 30 C 49.199219 19.398438 40.601562 10.800781 30 10.800781 Z M 40.34375 26.054688 C 40.351562 26.269531 40.355469 26.480469 40.355469 26.691406 C 40.355469 33.199219 35.40625 40.699219 26.347656 40.699219 C 23.566406 40.699219 20.976562 39.886719 18.800781 38.488281 C 19.1875 38.535156 19.578125 38.554688 19.976562 38.554688 C 22.285156 38.554688 24.40625 37.769531 26.089844 36.445312 C 23.933594 36.40625 22.113281 34.980469 21.488281 33.027344 C 21.789062 33.085938 22.097656 33.113281 22.414062 33.113281 C 22.867188 33.113281 23.300781 33.054688 23.714844 32.941406 C 21.460938 32.492188 19.761719 30.5 19.761719 28.113281 C 19.761719 28.09375 19.761719 28.074219 19.761719 28.054688 C 20.425781 28.421875 21.1875 28.644531 21.992188 28.667969 C 20.671875 27.789062 19.804688 26.277344 19.804688 24.570312 C 19.804688 23.667969 20.042969 22.820312 20.46875 22.097656 C 22.898438 25.074219 26.527344 27.035156 30.617188 27.242188 C 30.535156 26.882812 30.492188 26.503906 30.492188 26.121094 C 30.492188 23.402344 32.695312 21.195312 35.414062 21.195312 C 36.832031 21.195312 38.109375 21.792969 39.007812 22.75 C 40.128906 22.527344 41.183594 22.121094 42.136719 21.554688 C 41.769531 22.707031 40.988281 23.667969 39.96875 24.28125 C 40.964844 24.160156 41.914062 23.898438 42.796875 23.503906 C 42.140625 24.496094 41.308594 25.359375 40.34375 26.054688 Z M 40.34375 26.054688 "/>
</g>
</svg>
