<?xml version="1.0" encoding="UTF-8"?>
<svg xmlns="http://www.w3.org/2000/svg" xmlns:xlink="http://www.w3.org/1999/xlink" viewBox="0 0 60 60" width="50px" height="50px">
<g id="surface10985545">
<path style=" stroke:none;fill-rule:nonzero;fill:rgb(80.000001%,80.000001%,80.000001%);fill-opacity:1;" d="M 30 48.601562 C 19.726562 48.601562 11.398438 40.273438 11.398438 30 C 11.398438 19.726562 19.726562 11.398438 30 11.398438 C 40.273438 11.398438 48.601562 19.726562 48.601562 30 C 48.601562 40.273438 40.273438 48.601562 30 48.601562 Z M 30 48.601562 "/>
<path style=" stroke:none;fill-rule:nonzero;fill:rgb(29.803923%,53.725493%,18.82353%);fill-opacity:1;" d="M 30 10.800781 C 19.398438 10.800781 10.800781 19.398438 10.800781 30 C 10.800781 40.601562 19.398438 49.199219 30 49.199219 C 40.601562 49.199219 49.199219 40.601562 49.199219 30 C 49.199219 19.398438 40.601562 10.800781 30 10.800781 Z M 36.691406 23.601562 L 33.921875 23.601562 C 32.203125 23.601562 31.601562 24.507812 31.601562 26.347656 L 31.601562 28.398438 L 36.644531 28.398438 L 35.960938 33.199219 L 31.601562 33.199219 L 31.601562 45.921875 C 31.074219 45.972656 30.539062 46 30 46 C 28.902344 46 27.832031 45.886719 26.800781 45.679688 L 26.800781 33.199219 L 22 33.199219 L 22 28.398438 L 26.800781 28.398438 L 26.800781 25.824219 C 26.800781 20.941406 29.175781 18.800781 33.234375 18.800781 C 35.175781 18.800781 36.203125 18.945312 36.691406 19.007812 Z M 36.691406 23.601562 "/>
</g>
</svg>
