<?xml version="1.0" encoding="UTF-8"?>
<svg xmlns="http://www.w3.org/2000/svg" xmlns:xlink="http://www.w3.org/1999/xlink" viewBox="0 0 60 60" width="50px" height="50px">
<g id="surface10994824">
<path style=" stroke:none;fill-rule:nonzero;fill:rgb(80.000001%,80.000001%,80.000001%);fill-opacity:1;" d="M 30 48.601562 C 19.726562 48.601562 11.398438 40.273438 11.398438 30 C 11.398438 19.726562 19.726562 11.398438 30 11.398438 C 40.273438 11.398438 48.601562 19.726562 48.601562 30 C 48.601562 40.273438 40.273438 48.601562 30 48.601562 Z M 30 48.601562 "/>
<path style=" stroke:none;fill-rule:nonzero;fill:rgb(29.803923%,53.725493%,18.82353%);fill-opacity:1;" d="M 30 10.800781 C 19.398438 10.800781 10.800781 19.398438 10.800781 30 C 10.800781 40.601562 19.398438 49.199219 30 49.199219 C 40.601562 49.199219 49.199219 40.601562 49.199219 30 C 49.199219 19.398438 40.601562 10.800781 30 10.800781 Z M 22.792969 19.445312 C 24.140625 19.445312 25.039062 20.34375 25.039062 21.539062 C 25.039062 22.734375 24.140625 23.632812 22.644531 23.632812 C 21.296875 23.636719 20.398438 22.734375 20.398438 21.539062 C 20.398438 20.34375 21.296875 19.445312 22.792969 19.445312 Z M 25.199219 38 L 20.398438 38 L 20.398438 25.199219 L 25.199219 25.199219 Z M 41.199219 38 L 36.679688 38 L 36.679688 31.003906 C 36.679688 29.070312 35.476562 28.625 35.027344 28.625 C 34.574219 28.625 33.066406 28.921875 33.066406 31.003906 C 33.066406 31.300781 33.066406 38 33.066406 38 L 28.398438 38 L 28.398438 25.199219 L 33.070312 25.199219 L 33.070312 26.984375 C 33.671875 25.945312 34.875 25.199219 37.132812 25.199219 C 39.394531 25.199219 41.199219 26.984375 41.199219 31.003906 Z M 41.199219 38 "/>
</g>
</svg>
